<svg xmlns="http://www.w3.org/2000/svg" xmlns:xlink="http://www.w3.org/1999/xlink" preserveAspectRatio="xMidYMid" width="167" height="167" viewBox="0 0 167 167">
  <defs>
    <style>
      .cls-1 {
        fill: #e3151a;
        fill-rule: evenodd;
      }
    </style>
  </defs>
  <path d="M83.500,167.000 C71.972,167.000 60.989,164.664 51.000,160.439 L51.000,86.000 C55.167,70.500 67.813,59.500 87.000,63.000 C105.003,66.284 109.917,84.000 109.917,84.000 C115.958,76.000 120.021,60.750 118.188,58.750 C112.547,52.597 102.988,46.101 91.000,44.087 L91.000,0.352 C133.599,4.147 167.000,39.914 167.000,83.500 C167.000,129.616 129.616,167.000 83.500,167.000 ZM125.375,68.875 C124.333,108.667 91.000,120.250 91.000,120.250 L91.000,75.000 C81.250,70.406 72.000,75.000 72.000,75.000 L72.000,139.000 C110.844,146.375 129.938,117.000 131.188,95.125 C132.031,80.365 125.375,68.875 125.375,68.875 ZM34.000,91.000 L34.000,150.738 C13.382,135.534 -0.000,111.084 -0.000,83.500 C-0.000,40.943 30.844,5.167 72.000,-0.000 L72.000,45.000 C68.754,45.736 66.340,46.311 63.000,48.000 C34.000,62.667 34.000,91.000 34.000,91.000 Z" class="cls-1"/>
</svg>
