<?xml version="1.0" encoding="UTF-8" standalone="no"?>
<svg
   xmlns:dc="http://purl.org/dc/elements/1.1/"
   xmlns:cc="http://creativecommons.org/ns#"
   xmlns:rdf="http://www.w3.org/1999/02/22-rdf-syntax-ns#"
   xmlns:svg="http://www.w3.org/2000/svg"
   xmlns="http://www.w3.org/2000/svg"
   xmlns:sodipodi="http://sodipodi.sourceforge.net/DTD/sodipodi-0.dtd"
   xmlns:inkscape="http://www.inkscape.org/namespaces/inkscape"
   width="900.40002"
   height="900.40015"
   viewBox="-50 -30 90.03992 90.040021"
   id="svg2"
   version="1.1"
   inkscape:version="0.48.4 r9939"
   sodipodi:docname="AJAX.svg">
  <metadata
     id="metadata14">
    <rdf:RDF>
      <cc:Work
         rdf:about="">
        <dc:format>image/svg+xml</dc:format>
        <dc:type
           rdf:resource="http://purl.org/dc/dcmitype/StillImage" />
        <dc:title></dc:title>
      </cc:Work>
    </rdf:RDF>
  </metadata>
  <defs
     id="defs12" />
  <sodipodi:namedview
     pagecolor="#ffffff"
     bordercolor="#666666"
     borderopacity="1"
     objecttolerance="10"
     gridtolerance="10"
     guidetolerance="10"
     inkscape:pageopacity="0"
     inkscape:pageshadow="2"
     inkscape:window-width="1920"
     inkscape:window-height="1057"
     id="namedview10"
     showgrid="false"
     fit-margin-top="0.2"
     fit-margin-left="0.2"
     fit-margin-right="0.2"
     fit-margin-bottom="0.2"
     inkscape:zoom="0.64"
     inkscape:cx="630.41861"
     inkscape:cy="324.81532"
     inkscape:window-x="-8"
     inkscape:window-y="-8"
     inkscape:window-maximized="1"
     inkscape:current-layer="svg2"
     showguides="true"
     inkscape:guide-bbox="true"
     inkscape:showpageshadow="true"
     borderlayer="false"
     showborder="true" />
  <path
     sodipodi:nodetypes="sssss"
     style="fill:#ec1d24;fill-opacity:1;stroke:none"
     d="m -4.9800292,60.020021 c -24.8528338,0 -45.0000148,-20.147186 -45.0000148,-45.000021 0,-24.852797 20.147181,-45 45.0000148,-45 24.8528052,0 44.9999962,20.147203 44.9999962,45 0,24.852835 -20.147192,45.000021 -44.9999962,45.000021 z"
     id="path4310"
     inkscape:connector-curvature="0" />
  <path
     inkscape:connector-curvature="0"
     id="path4312"
     d="m -4.9800332,51.020021 c -19.8822638,0 -36.0000098,-16.117753 -36.0000098,-36.000021 0,-19.882241 16.117746,-35.999999 36.0000098,-35.999999 19.8822482,0 36.0000002,16.117758 36.0000002,35.999999 0,19.882268 -16.117753,36.000021 -36.0000002,36.000021 z"
     style="fill:#ffffff;fill-opacity:1;stroke:none"
     sodipodi:nodetypes="sssss" />
  <path
     inkscape:connector-curvature="0"
     style="fill:#f8ac4a;fill-opacity:1;fill-rule:evenodd;stroke:none"
     d="m 14.060503,10.779535 c -0.68546,2.20697 -2.818039,3.73057 -5.1012119,3.73057 l -0.60936,0 c -1.37046,-0.99096 -26.3449211,-0.68536 -26.5720511,0.07644 -4.11251,1.143706 -8.68123,-2.35976 -8.68123,-6.6250201 0,-0.68337 0.0765,-1.36874 0.30569,-2.05417 l -0.0765,0.0764 c -1.59797,-1.21807 -2.58891,-3.19582 -2.58891,-5.25417013 0,-3.72850287 2.96876,-6.69933287 6.69931,-6.69933287 l -0.0765,-0.0764 c 0.22916,-2.81598 2.51458,-5.0249999 5.40694,-5.0249999 1.6,0 3.12153,0.68749 4.11247,1.9055499 l 0.0744,0 c 0,-0.30557 -0.0744,-0.60906 -0.0744,-0.9125299 0,-2.66735 1.82502,-4.87432 4.4160071,-5.33053 1.06527,-0.22917 0,-0.0764 1.06527,-0.0764 2.588874,0 4.795864,1.82713 5.328474,4.33757 l -0.0765,0.0764 c 0.61113,-1.90144 2.43817997,-3.11945 4.41808,-3.11945 2.58895,0 4.71941,2.13054 4.71941,4.7194099 0,0.22917 0,0.45833 -0.0761,0.7618 0.83978,-0.83611 1.90527,-1.2944299 3.04686,-1.2944299 2.2831719,0 4.1123819,1.8271199 4.1123819,4.1104599 0,0.53263 -0.15263,1.14164 -0.45824,1.5979 0.6855,-0.30345 1.14159,-0.45626 1.82709,-0.45626 2.285293,0 4.112897,1.82919 4.112897,4.11252287 0,1.21807 -0.6094,2.43402013 -1.59822,3.19793013 l -0.0761,0 c 1.06493,0.83817 1.67433,2.20692 1.67433,3.57777 0,2.58681 -2.130967,4.7194701 -4.798397,4.7194701 l -0.37969,0 -0.0765,-0.0764"
     id="path3955"
     sodipodi:nodetypes="csccsccsccsccscsccsscsscssccsscc" />
  <path
     inkscape:connector-curvature="0"
     style="fill:#000000;fill-opacity:1;fill-rule:evenodd;stroke:none"
     d="m -23.020052,1.8712349 -0.91247,0.68749 -3.35073,-3.35073013 1.59797,-1.59789987 2.66523,4.26114 z"
     id="path3957" />
  <path
     inkscape:connector-curvature="0"
     style="fill:#000000;fill-opacity:1;fill-rule:evenodd;stroke:none"
     d="m -23.247102,8.8781549 -0.45833,-0.91665 8.14651,1.9819299 -0.22916,0.6854202 -9.66804,-0.9145901 2.20902,-0.83611 z"
     id="path3959" />
  <path
     inkscape:connector-curvature="0"
     style="fill:#000000;fill-opacity:1;fill-rule:evenodd;stroke:none"
     d="m 2.4105411,9.7142649 0,0.6854301 9.8995219,-0.9125301 -0.458749,-1.2965 -9.4407729,1.5236 z"
     id="path3961" />
  <path
     inkscape:connector-curvature="0"
     style="fill:#000000;fill-opacity:1;fill-rule:evenodd;stroke:none"
     d="m -11.52281,9.4871649 -0.91454,0.6833701 0.68542,0.45832 2.6652281,0 0.685419,-0.45832 -0.45626,-0.6833701 -2.6652671,0 z"
     id="path3963" />
  <path
     inkscape:connector-curvature="0"
     style="fill:#000000;fill-opacity:1;fill-rule:evenodd;stroke:none"
     d="m 0.81261107,9.4871649 -0.91458,-0.61107 -0.60902,0.83817 0.60902,0.6854301 0.91458,-0.9125301 z"
     id="path3965" />
  <path
     inkscape:connector-curvature="0"
     style="fill:#000000;fill-opacity:1;fill-rule:evenodd;stroke:none"
     d="m 1.0397411,-6.6551781 -2.66324,-0.68337 1.14166997,-1.82707 2.43611003,1.59791 -0.91454,0.91253 z"
     id="path3967" />
  <path
     inkscape:connector-curvature="0"
     style="fill:#000000;fill-opacity:1;fill-rule:evenodd;stroke:none"
     d="m -20.507542,3.0149349 7.3868,5.17573 -0.22916,0.68749 -9.21389,-5.17779 2.05625,0 0,-0.68543 z"
     id="path3969" />
  <path
     inkscape:connector-curvature="0"
     style="fill:#000000;fill-opacity:1;fill-rule:evenodd;stroke:none"
     d="m -13.120742,4.7656349 -10.58469,-7.611813 1.59996,-0.91459 9.66812,7.690293 -0.68339,0.83611 z"
     id="path3971" />
  <path
     inkscape:connector-curvature="0"
     style="fill:#000000;fill-opacity:1;fill-rule:evenodd;stroke:none"
     d="m -12.664482,0.27327477 -0.45626,0.45626 -6.31941,-9.20977287 2.2833,1.14169 0.22705,-0.91459 4.26527,8.52641287 z"
     id="path3973" />
  <path
     inkscape:connector-curvature="0"
     style="fill:#000000;fill-opacity:1;fill-rule:evenodd;stroke:none"
     d="m -9.5429619,-8.0239681 1.141679,1.36879 1.370834,0 0,-1.82506 -2.512513,0 0,0.45627 z"
     id="path3975" />
  <path
     inkscape:connector-curvature="0"
     style="fill:#000000;fill-opacity:1;fill-rule:evenodd;stroke:none"
     d="m 10.483013,-8.9364481 1.139481,1.13958 -9.8973329,6.319433 -0.45625,-0.45621 9.2141019,-7.002803 z"
     id="path3977" />
  <path
     inkscape:connector-curvature="0"
     style="fill:#000000;fill-opacity:1;fill-rule:evenodd;stroke:none"
     d="M 14.975373,-0.18294523 2.1813711,5.4510649 l 0.22917,0.91253 13.0209219,-3.34866 -1.14159,-0.68744 0.6855,-2.51044013 z"
     id="path3979" />
  <path
     inkscape:connector-curvature="0"
     style="fill:#000000;fill-opacity:1;fill-rule:evenodd;stroke:none"
     d="m 9.7975111,-3.5316081 0,2.5104429 3.1975019,-0.2270899 0,-1.14164 -3.1975019,-1.141703 z"
     id="path3981" />
  <path
     inkscape:connector-curvature="0"
     style="fill:#000000;fill-opacity:1;fill-rule:evenodd;stroke:none"
     d="m 0.81261107,0.50243477 0,1.14169013 1.82502003,0 0,-0.91459013 -1.82502003,-0.22709 z"
     id="path3983" />
  <path
     inkscape:connector-curvature="0"
     style="fill:#000000;fill-opacity:1;fill-rule:evenodd;stroke:none"
     d="m -11.52281,4.1566349 0.0457,-0.0393 c 0.89184,0.68126 1.5442381,1.62888 1.8642181,2.70245 l 0.14671,0 0.0338,-0.0123 c 0.48928,1.51535 1.624729,2.7396 3.102963,3.3424201 l -0.0169,0.0207 0,-0.0743 0.0169,-0.0123 c -0.24776,-0.3591801 -0.40463,-0.7741601 -0.45422,-1.2097701 l -0.0169,0.004 -0.008,0 c -0.0495,-0.59046 -0.29512,-1.14582 -0.697814,-1.57936 l 0.0211,-0.0207 0.0744,-0.0764 0.002,0.0578 c 0.383914,0.0826 0.741154,0.25394 1.044684,0.49961 l 0.0169,-0.0249 0.0786,0.0764 0.0127,0.002 c -0.06,-0.30354 -0.0909,-0.607 -0.0909,-0.91666 0,-0.9889 0.30781,-1.95507 0.87742,-2.76439 l 0.038,0.0249 0,0.0764 0.0127,0 c 0.0495,0.4356 0.19619,0.85264 0.43355,1.22218 l -0.0681,-0.004 0,-0.0764 0.002,-0.0681 c 0.24354,-0.15691 0.4604,-0.35098 0.64623,-0.57191 l 0.038,0.0309 0,0.0764 0.0296,-0.002 c 0.0296,0.17546 0.0452,0.35503 0.0452,0.53469 0,0.77417 -0.2744,1.52154 -0.77624,2.1223 l 0.0127,0.008 0.0723,-0.0908 c 0.36319,-0.0271 0.72465,-0.0991 1.07351,-0.20853 l -0.004,0.0723 0,-0.15272 -0.0169,-0.008 c -0.23931,0.72047 -0.71632,1.33778 -1.3543,1.75277 l 0.004,0.008 0.0744,0 0.004,-0.0101 c 0.0989,0.006 0.20041,0.0101 0.30146,0.0101 0.25623,0 0.51203,-0.0207 0.76592,-0.0619 l -0.004,0.0619 0.0744,-0.0764 -0.0558,0.004 c -0.17124,0.53264 -0.50378,1.00127 -0.95175,1.3398401 l 0.0169,0.0249 0,-0.0743 0.0723,-0.0785 c 2.50836,-0.0393 4.53154997,-2.0624199 4.57285997,-4.5707999 l 0.0765,0.004 0,-0.0764 -0.004,-0.0764 c -0.60491,0.38188 -1.27586997,0.63997 -1.97988997,0.76179 l 0.002,0.0764 0,-0.0764 -0.008,-0.0123 c 1.37294997,-1.24903 2.17188997,-3.00386 2.21315997,-4.85983 l 0.002,-0.002 -0.0951,-0.0909 c -0.7143,0.68749 -1.60820997,1.15819 -2.57855997,1.35638 l 0.008,0.10739 -0.0765,-0.1528 -0.06,0.0123 c 0.62965,-0.72047 0.97445,-1.64331013 0.97445,-2.60124013 0,-0.60287 -0.13826,-1.19951987 -0.40463,-1.74245987 l 0.0211,-0.008 0,-0.0764 -0.0765,-0.0804 c -0.50784,1.14580987 -1.35638,2.10992987 -2.42783,2.76227987 l -0.008,0.0578 0.0765,-0.0764 0.0296,0.0249 c 0.67506,-0.9972 1.03433,-2.17186987 1.03433,-3.37340287 0,-1.37292 -0.47279,-2.70657 -1.33368,-3.77601 l -0.038,0.0454 0.15264,0.37985 -0.0681,0 c 0.0452,0.22709 0.0681,0.45627 0.0681,0.68543 0,0.55537 -0.13404,1.10243 -0.38392,1.59585 l 0.004,0.004 0,-0.0764 0,0.004 c -0.2706,0.45214 -0.479,0.93727 -0.61937,1.445173 l 0.008,-0.002 0.0765,0.0764 0.004,-0.006 c -0.41689,-0.499603 -0.74943,-1.065273 -0.9827,-1.672263 l -0.0127,0.004 -0.0765,0 0.002,-0.002 c -0.353044,0.84234 -0.534684,1.750693 -0.534684,2.665293 0,0.94761987 0.19618,1.88488987 0.573884,2.75403 l 0.0338,-0.0144 0,-0.0764 0.002,-0.0806 c -0.943594,-0.76377013 -1.643474,-1.79395013 -2.004764,-2.95626 l -0.0516,-0.006 0.0765,0.0764 -0.0169,-0.0123 c -0.338669,0.66481987 -0.514049,1.39769987 -0.514049,2.14295987 0,1.38323013 0.606989,2.69627013 1.661939,3.59638013 l -0.0638,0.0578 0.0765,-0.0764 0.008,-0.0309 c -0.61312,-0.23123 -1.259339,-0.34894 -1.911739,-0.34894 -0.6771281,0 -1.3501181,0.12595 -1.9819181,0.37579 l 0.002,0.0805 0.0765,-0.0764"
     id="path3985" />
  <path
     sodipodi:nodetypes="ccccccccccccccccccccccc"
     inkscape:connector-curvature="0"
     id="path4039"
     d="m 4.2268641,11.447259 c 1.185784,0.0099 4.01116,0.617888 4.578326,4.112559 l 1.3179279,8.381241 c 0,0 2.430785,0.155088 2.405608,2.717896 l 0,7.526446 c 0,0 0.143272,1.427483 -1.241177,2.24946 l 0,5.898986 c 0,0 -0.909763,1.227213 -2.7919919,1.241171 -1.885619,-0.01388 -2.641138,-1.317919 -2.641138,-1.317919 l 0,-5.356463 c 0,0 -7.560291,0.390407 -10.834488,0.389027 -3.274199,0.0017 -10.8344821,-0.389027 -10.8344821,-0.389027 l 0,5.356463 c 0,0 -0.755519,1.304037 -2.641137,1.317919 -1.882223,-0.01397 -2.791986,-1.241171 -2.791986,-1.241171 l 0,-5.898986 c -1.38445,-0.821977 -1.241177,-2.24946 -1.241177,-2.24946 l 0,-7.526446 c -0.02518,-2.562808 2.405608,-2.717896 2.405608,-2.717896 l 1.317922,-8.381241 c 0.567165,-3.494671 3.392541,-4.102647 4.578325,-4.112559 l 9.2069271,0 z"
     style="fill:#000000;fill-opacity:1;fill-rule:nonzero;stroke:none" />
  <path
     inkscape:connector-curvature="0"
     id="path4041"
     d="m -2.0914479,14.09626 c 0.457053,0.0206 5.488262,0.374582 5.74022,0.388858 1.540297,0.18461 3.279099,1.102254 3.72453,3.256321 l 0.309496,2.483901 c 0,0 0.441162,2.189449 -1.862265,2.171758 -1.821834,0.0174 -8.446007,-0.370283 -10.800608,-0.388858 -2.354602,0.01853 -8.9787681,0.406333 -10.8006031,0.388858 -2.303427,0.01768 -1.862264,-2.171758 -1.862264,-2.171758 l 0.309496,-2.483901 c 0.445431,-2.154067 2.184233,-3.071711 3.72453,-3.256321 0.251958,-0.0143 5.2831591,-0.368289 5.7402141,-0.388858 l 2.888627,0 2.888627,0 z"
     style="fill:#ffffff;fill-rule:nonzero;stroke:none" />
  <path
     id="path4043"
     d="m -18.065196,25.736416 c 1.369944,2.45e-4 2.481716,1.112036 2.479152,2.484839 0.0025,1.369942 -1.109208,2.481715 -2.479152,2.479156 -1.372808,0.0028 -2.484581,-1.109214 -2.484844,-2.479156 3.73e-4,-1.372803 1.112036,-2.484566 2.484844,-2.484839 z"
     style="fill:#ffffff;fill-rule:nonzero;stroke:none"
     inkscape:connector-curvature="0" />
  <path
     style="fill:#ffffff;fill-opacity:1;stroke:none"
     d="m 3.9924351,30.656082 -17.9449981,0 0,1.475043 17.9449981,0 z"
     id="path4045"
     inkscape:connector-curvature="0"
     sodipodi:nodetypes="ccccc" />
  <path
     style="fill:#ffffff;fill-rule:nonzero;stroke:none"
     d="m -4.3928299,27.898582 c 2.002515,0.0085 7.411342,0.101576 8.385265,0.235317 l 0,1.163886 -8.972498,0 -8.9725001,0 0,-1.163886 c 0.973924,-0.133741 6.3827541,-0.226006 8.3852671,-0.235317 0.267969,0 0.460015,0 0.587233,0 0.127219,0 0.319266,0 0.587233,0 z"
     id="path4047"
     inkscape:connector-curvature="0" />
  <path
     inkscape:connector-curvature="0"
     style="fill:#ffffff;fill-rule:nonzero;stroke:none"
     d="m 8.1050661,25.736416 c -1.369944,2.45e-4 -2.481716,1.112036 -2.479152,2.484839 -0.0025,1.369942 1.109208,2.481715 2.479152,2.479156 1.372808,0.0028 2.4845829,-1.109214 2.4848459,-2.479156 -3.73e-4,-1.372803 -1.1120379,-2.484566 -2.4848459,-2.484839 z"
     id="path4049" />
  <path
     inkscape:connector-curvature="0"
     id="path4051"
     d="m -4.3928299,34.888585 c 2.002515,-0.0085 7.411342,-0.101576 8.385265,-0.235317 l 0,-1.163886 -8.972498,0 -8.9725001,0 0,1.163886 c 0.973924,0.133741 6.3827541,0.226006 8.3852671,0.235317 0.267969,0 0.460015,0 0.587233,0 0.127219,0 0.319266,0 0.587233,0 z"
     style="fill:#ffffff;fill-rule:nonzero;stroke:none" />
</svg>
