<?xml version="1.0" encoding="UTF-8" standalone="no"?>
<!-- Created with Inkscape (http://www.inkscape.org/) -->
<svg xmlns:dc="http://purl.org/dc/elements/1.1/" xmlns:cc="http://creativecommons.org/ns#" xmlns:rdf="http://www.w3.org/1999/02/22-rdf-syntax-ns#" xmlns:svg="http://www.w3.org/2000/svg" xmlns="http://www.w3.org/2000/svg" xmlns:inkscape="http://www.inkscape.org/namespaces/inkscape" version="1.1" width="342.04999" height="342.04999" id="svg2" xml:space="preserve"><metadata id="metadata8"><rdf:RDF><cc:Work rdf:about=""><dc:format>image/svg+xml</dc:format><dc:type rdf:resource="http://purl.org/dc/dcmitype/StillImage"/></cc:Work></rdf:RDF></metadata><defs id="defs6"><clipPath id="clipPath18"><path d="M 0,2736.4 V 0 H 2736.4 V 2736.4 H 0 z" inkscape:connector-curvature="0" id="path20"/></clipPath></defs><g transform="matrix(1.25,0,0,-1.25,0,342.05)" id="g10"><g transform="scale(0.1,0.1)" id="g12"><g id="g14"><g clip-path="url(#clipPath18)" id="g16"><path d="m 1368.2,2731.4 c 752.86,0 1363.2,-610.34 1363.2,-1363.2 C 2731.4,615.33 2121.1,5 1368.2,5 615.33,5 5,615.33 5,1368.2 5,2121.06 615.33,2731.4 1368.2,2731.4" inkscape:connector-curvature="0" id="path22" style="fill:#ffffff"/><path d="m 1368.2,2731.4 c 752.86,0 1363.2,-610.34 1363.2,-1363.2 C 2731.4,615.33 2121.1,5 1368.2,5 615.33,5 5,615.33 5,1368.2 5,2121.06 615.33,2731.4 1368.2,2731.4 z" inkscape:connector-curvature="0" id="path24" style="fill:none;stroke:#0079c1;stroke-width:10"/><path d="m 1368.2,2679.1 c 723.97,0 1310.9,-586.92 1310.9,-1310.9 C 2679.1,644.22 2092.2,57.3 1368.2,57.3 644.22,57.289 57.3,644.22 57.3,1368.2 c 0,723.98 586.92,1310.9 1310.9,1310.9" inkscape:connector-curvature="0" id="path26" style="fill:#0079c1"/><path d="m 1872.3,2129.7 c -37.59,0 -73.42,-7.47 -106.03,-21.16 l -109.08,190.07 20.72,56.99 c 54.4,5.29 74.02,55.29 74.02,63.77 0,8.48 -10.1,8.48 -10.1,8.48 h -235.89 c -5.24,0 -22.61,-4.44 -22.61,-23.02 0,-18.58 19.79,-21.81 19.79,-21.81 l 103.41,-22.77 -25.04,-68.92 h -501.2 c 6.2,23.15 10.03,37.43 10.03,37.43 0,0 4.31,14.01 4.31,19.93 0,28.07 -20.83,49.05 -29.62,53.79 -1.75,0.94 -7.61,3.57 -7.61,11.44 0,7.88 4.58,14.47 14.61,14.47 h 104.48 v 69.48 h -131.41 c 0,0 -68.939,-6.46 -68.939,-77.02 0,-41.24 20.473,-50.62 36.619,-60.31 5.39,-3.24 10.24,-16.7 8.09,-24.24 -1.26,-4.39 -33.35,-124.78 -59.846,-224.23 -30.125,11.38 -62.769,17.63 -96.879,17.63 -151.42,0 -274.19,-122.77 -274.19,-274.19 0,-151.43 122.76,-274.19 274.19,-274.19 151.42,0 274.18,122.76 274.18,274.19 0,92.06 -45.37,173.51 -114.97,223.24 2.98,11.13 6.03,22.48 9.09,33.92 l 318.41,-222.48 c -3.47,-10.94 -5.35,-22.59 -5.35,-34.68 0,-63.41 51.41,-114.82 114.82,-114.82 11.34,0 22.29,1.65 32.63,4.72 l 17.02,-37.06 h -29.26 v -37.16 h 32.79 c 5.16,-8.13 14.23,-13.53 24.57,-13.53 10.34,0 19.42,5.4 24.57,13.53 h 31.98 v 37.16 h -47.9 l -23.91,50.83 c 24.67,16.04 42.79,41.29 49.49,70.88 l 26.2,-0.4 c 13.21,-139.11 131.23,-248.34 273.81,-248.34 151.43,0 274.19,122.76 274.19,274.19 0,151.42 -122.76,274.19 -274.19,274.19" inkscape:connector-curvature="0" id="path28" style="fill:#ffffff"/><path d="m 1460.3,1927.4 c 39.74,0 71.97,-32.22 71.97,-71.97 0,-39.75 -32.23,-71.98 -71.97,-71.98 -39.75,0 -71.98,32.23 -71.98,71.98 0,39.75 32.23,71.97 71.98,71.97" inkscape:connector-curvature="0" id="path30" style="fill:#0079c1"/><path d="m 1464.8,1970.2 c -1.48,0.05 -2.98,0.09 -4.48,0.09 -11.98,0 -23.53,-1.83 -34.38,-5.23 l -17.04,36.23 h 31.22 v 37.16 h -31.98 c -5.16,8.13 -14.23,13.53 -24.57,13.53 -10.34,0 -19.41,-5.4 -24.57,-13.53 h -32.78 v -37.16 h 49.21 l 22.65,-49.32 c -2.7,-1.74 -5.31,-3.6 -7.84,-5.56 l -338.9,236.78 c 3.64,13.61 7.19,26.85 10.57,39.45 h 494.63 L 1464.8,1970.2" inkscape:connector-curvature="0" id="path32" style="fill:#0079c1"/><path d="m 1706.5,2073.9 -80.11,140.1 -96.98,-266.86 c 21.46,-16.23 37.05,-39.82 42.99,-67.01 h 26.77 c 7.04,79 47.58,148.36 107.33,193.77" inkscape:connector-curvature="0" id="path34" style="fill:#0079c1"/><path d="m 1746.8,2002.4 c -35.64,-30.64 -60.72,-73.39 -66.74,-122.45 h 137.3 l -70.56,122.45" inkscape:connector-curvature="0" id="path36" style="fill:#0079c1"/><path d="m 1807.1,2036.9 95.92,-166.44 c 0,0 4.64,-7.67 4.64,-15.96 0,-24.43 -25.04,-24.43 -36.96,-24.43 l -190.05,-0.38 c 12.79,-94.55 93.61,-167.82 191.67,-167.82 106.95,0 193.64,86.7 193.64,193.65 0,106.94 -86.69,193.64 -193.64,193.64 -23.17,0 -44.62,-4.8 -65.22,-12.26" inkscape:connector-curvature="0" id="path38" style="fill:#0079c1"/><path d="m 1000.4,1993 c -9.347,-34.87 -15.815,-58.99 -16.71,-62.31 -21.164,-78.63 -101.98,-102.86 -118.47,-102.86 -17.778,0 -28.547,11.85 -28.547,28.54 0,16.69 13.461,21.54 18.308,25.31 61.395,47.93 71.09,99.09 71.09,99.09 0,0 5.598,21.02 14.063,52.81 -23.332,9.97 -49.016,15.49 -75.997,15.49 -106.95,0 -193.64,-86.7 -193.64,-193.64 0,-106.95 86.695,-193.65 193.64,-193.65 106.95,0 193.64,86.7 193.64,193.65 0,53.81 -21.95,102.48 -57.38,137.57" inkscape:connector-curvature="0" id="path40" style="fill:#0079c1"/><path d="m 1514.2,1494 c -53.27,0 -92.76,-42.32 -92.76,-94.55 0,-32.7 33.9,-79.68 36.86,-83.24 2.98,-3.57 7.14,-19.03 -3.56,-22.6 -26.08,-8.69 -65.15,-20.55 -95.14,-39.84 -8.33,-5.34 -25.57,-13.67 -29.14,-31.51 l -101.4,-433.07 c 0,0 -25.27,-1.64 -25.27,-22.449 0,-15.461 3.86,-16.359 3.86,-16.359 0,0 -50.84,-4.012 -66.89,0.449 -16.05,4.449 -22.74,14.27 -9.81,26.758 12.94,12.48 21.41,29.43 21.41,48.16 0,18.731 -22.3,64.223 -64.67,64.223 -42.36,0 -65.55,-37.91 -65.55,-62.883 0,-24.969 14.27,-44.598 20.07,-50.399 5.79,-5.789 10.25,-14.269 -5.36,-21.851 -60.654,-29.457 -69.893,-62.731 -77.596,-135.13 -2.23,-20.949 -3.566,-120.86 -2.676,-128.87 0.895,-8.039 12.043,-25.867 30.774,-25.867 18.728,0 27.198,11.59 27.198,20.508 0,8.921 -7.13,13.371 -10.25,16.5 -3.12,3.121 -6.69,11.601 -4.464,18.281 2.234,6.699 15.164,82.058 14.714,87.859 2.68,2.231 10.26,15.172 14.72,22.75 24.22,-45.41 6.7,-124.21 -3.57,-182.41 -1.34,-7.57 -1.78,-12.488 11.15,-16.051 0,-4 -0.44,-163.67 -0.44,-163.67 0,0 -0.89,-11.582 -3.57,-14.269 -2.68,-2.68 -9.81,-8.922 -9.81,-15.172 0,-6.231 4.9,-8.91 9.37,-8.91 4.45,0 7.13,2.23 9.81,4.011 2.67,1.789 25.86,18.278 25.86,18.278 0,0 8.47,7.59 11.15,18.742 l 24.97,117.29 c 0,0 0,7.129 5.35,12.039 5.36,4.902 8.93,8.031 12.05,9.359 3.12,1.34 7.58,2.684 7.58,-3.558 v -140.04 c 0,0 0.44,-7.582 4.46,-11.153 4.01,-3.566 42.36,-28.539 43.7,-30.308 1.34,-1.789 7.58,-3.578 9.37,-3.578 1.78,0 9.81,2.679 9.81,9.367 0,6.691 -3.57,10.25 -5.8,13.383 -2.23,3.117 -11.15,14.258 -12.49,15.609 -1.34,1.34 -7.29,9.961 -3.57,23.629 1.34,4.91 18.74,99.898 19.18,109.71 5.35,1.781 45.49,19.168 32.56,66 l -50.4,206.92 c 0,0 -5.64,12.34 5.8,16.512 47.72,17.39 75.81,30.328 115.5,60.199 4.8,3.609 18.73,16.5 -6.24,34.34 l 118.63,304.59 -7.14,-332.24 c 0,0 -1.78,-20.519 -0.45,-37.011 l 35.69,-435.27 c 0,0 -0.9,-6.238 -3.13,-9.359 -2.22,-3.129 -16.95,-24.969 -18.73,-26.762 -1.79,-1.789 -4.46,-6.238 -3.12,-9.797 1.33,-3.582 5.8,-10.273 11.15,-10.273 5.35,0 8.03,2.691 12.04,4.91 l 65.11,47.722 c 0,0 8.92,4.899 9.36,23.641 0,0 2.64,133.64 5.35,216.29 3.13,94.981 8.92,119.96 29.44,212.72 l 13.83,-182.85 c 0,0 3.56,-82.941 3.56,-89.183 0,-41.809 1.07,-132.09 -6.69,-173.48 -1.34,-7.141 0.89,-7.582 2.68,-9.371 1.78,-1.781 42.81,-41.031 44.6,-43.711 1.78,-2.66 8.46,-6.238 11.59,-6.238 3.12,0 16.49,4.019 16.49,12.039 0,2.679 -0.44,6.687 -3.11,10.711 -2.68,4.008 -7.58,12.488 -8.47,13.82 -0.9,1.34 -2.68,3.566 -1.35,11.148 1.35,7.579 34.35,284.66 36.13,292.4 1.78,7.73 12.49,181.37 12.49,200.98 0,19.621 -29.73,318.72 -29.73,323.47 0,0 73.73,-93.6 73.73,-226.54 0,-20.82 -2.09,-51.777 -2.98,-57.09 -0.59,-3.558 -1.18,-10.109 -2.97,-14.269 -1.79,-4.168 -6.54,-17.239 -6.54,-26.16 0,-8.93 7.72,-38.059 39.84,-38.059 17.84,0 35.97,21.699 35.97,35.969 0,14.281 -3.87,22.902 -5.64,25.281 -1.78,2.379 -3.57,13.68 -1.2,24.961 2.39,11.297 7.74,89.797 7.74,109.42 0,72.39 -26.17,194.44 -43.41,270.55 -2.28,10 -13.68,31.51 -28.55,41.62 -43,29.24 -81.11,52.66 -125.46,60.06 -7.13,1.19 -22,7.13 -9.52,26.76 12.49,19.62 35.09,51.73 35.09,85.62 0,33.89 -24.38,89.79 -89.19,89.79" inkscape:connector-curvature="0" id="path42" style="fill:#ffffff"/></g></g></g></g></svg>